# xmcd
#
# Track frame offsets:
#	150
#	15388
#	25729
#	40395
#	50690
#	61783
#	73158
#	84839
#	97123
#	107035
#
# Disc length: 1579 seconds
#
# Revision: 0
# Processed by: cddbd v1.5.2PL0 Copyright (c) Steve Scherf et al.
# Submitted via: audiograbber 1.83.01
#
DISCID=7b06290a
DTITLE=Tammy Wynette - Christmas with Tammy Wynette
DYEAR=1998
DGENRE=Christmas
TTITLE0=Silent night
TTITLE1=O little town of Bethlehem
TTITLE2=It came upon a midnight clear
TTITLE3=Joy to the world
TTITLE4=Away in a manger
TTITLE5=Blue christmas
TTITLE6=(Merry christmas) We must be having one
TTITLE7=White christmas
TTITLE8=One happy christmas
TTITLE9=Let's put Christ back in christmas
EXTD=saturn-download 081128
EXTT0=
EXTT1=
EXTT2=
EXTT3=
EXTT4=
EXTT5=
EXTT6=
EXTT7=
EXTT8=
EXTT9=
PLAYORDER=
